<mxfile host="app.diagrams.net" modified="2024-01-25T18:02:07.370Z" agent="Mozilla/5.0 (Windows NT 10.0; Win64; x64) AppleWebKit/537.36 (KHTML, like Gecko) Chrome/120.0.0.0 Safari/537.36 Edg/120.0.0.0" version="22.1.22" etag="s87PgWrbev6qs3_W-v_C" type="github">
  <diagram name="Seite-1" id="cFAmvKe5yED3z9JtZnVZ">
    <mxGraphModel>
      <root>
        <mxCell id="0" />
        <mxCell id="1" parent="0" />
      </root>
    </mxGraphModel>
  </diagram>
</mxfile>
